# xmcd CD database file
#
# Track frame offsets:
#	150
#	21351
#	34296
#	55100
#	75648
#	90637
#
# Disc length: 1479 seconds
#
# Revision: 1
# Processed by: cddbd v1.5.1PL2 Copyright (c) Steve Scherf et al.
# Submitted via: CDex 1.51
#
DISCID=4205c506
DTITLE=Troublemaker - Same
DYEAR=1987
DGENRE=Metal
TTITLE0=The Best I Ever Had
TTITLE1=Lonely Angel
TTITLE2=Cry For The Night
TTITLE3=Tell Me Tonight
TTITLE4=Going Crazy
TTITLE5=Fiery Eyes
EXTD=YEAR: 1987
EXTT0=
EXTT1=
EXTT2=
EXTT3=
EXTT4=
EXTT5=
PLAYORDER=
